<mxfile host="65bd71144e">
    <diagram name="Page-1" id="LX_qo-Hpl9w2MyAxb0YF">
        <mxGraphModel dx="1264" dy="1741" grid="1" gridSize="10" guides="1" tooltips="1" connect="1" arrows="1" fold="1" page="1" pageScale="1" pageWidth="827" pageHeight="1169" math="0" shadow="0">
            <root>
                <mxCell id="0"/>
                <mxCell id="1" parent="0"/>
                <mxCell id="Lw-I1L2H1XPd6LwriKKZ-3" value="" style="edgeStyle=orthogonalEdgeStyle;rounded=0;orthogonalLoop=1;jettySize=auto;html=1;" parent="1" source="Lw-I1L2H1XPd6LwriKKZ-1" target="Lw-I1L2H1XPd6LwriKKZ-2" edge="1">
                    <mxGeometry relative="1" as="geometry"/>
                </mxCell>
                <mxCell id="Lw-I1L2H1XPd6LwriKKZ-1" value="&lt;b&gt;&lt;font style=&quot;font-size: 14px;&quot;&gt;Steps Predictor&lt;/font&gt;&lt;/b&gt;" style="text;html=1;align=center;verticalAlign=middle;whiteSpace=wrap;rounded=0;strokeColor=#FF0000;" parent="1" vertex="1">
                    <mxGeometry x="70" y="-942.5" width="140" height="55" as="geometry"/>
                </mxCell>
                <mxCell id="Lw-I1L2H1XPd6LwriKKZ-2" value="&lt;div&gt;The general idea:&lt;/div&gt;&lt;div&gt;&lt;br&gt;&lt;/div&gt;&lt;div&gt;Needs user to transfer from the phone&lt;/div&gt;&lt;div&gt;&lt;br&gt;&lt;/div&gt;&lt;div&gt;The setup:&lt;/div&gt;&lt;div&gt;&lt;br&gt;&lt;/div&gt;&lt;div&gt;1. How to access user data easier:&amp;nbsp;&lt;/div&gt;&lt;div&gt;manually download the data -&amp;nbsp;&lt;/div&gt;&lt;div&gt;2. Upload data - from the phone directly&lt;/div&gt;&lt;div&gt;3. Save the data to cloud - &lt;b&gt;Azure&lt;/b&gt;&lt;/div&gt;&lt;div&gt;4. The model will predict from Azure&lt;/div&gt;&lt;div&gt;5. Get the predicted data back to the app&lt;/div&gt;&lt;div&gt;&lt;br&gt;&lt;/div&gt;&lt;div&gt;The second use:&lt;div&gt;1. Dates&lt;/div&gt;&lt;div&gt;2. Ask user to fill in the steps&amp;nbsp;&lt;/div&gt;&lt;div&gt;3. Send the data to cloud and predict tomorrow&lt;/div&gt;&lt;/div&gt;&lt;div&gt;&lt;br&gt;&lt;/div&gt;&lt;div&gt;&lt;br&gt;&lt;/div&gt;&lt;div&gt;Visual Studio Code&lt;/div&gt;&lt;div&gt;C#&lt;/div&gt;&lt;div&gt;Android&lt;/div&gt;" style="whiteSpace=wrap;html=1;align=left;" parent="1" vertex="1">
                    <mxGeometry x="330" y="-1120" width="360" height="370" as="geometry"/>
                </mxCell>
                <mxCell id="Lw-I1L2H1XPd6LwriKKZ-4" value="" style="whiteSpace=wrap;html=1;aspect=fixed;" parent="1" vertex="1">
                    <mxGeometry x="340" y="-680" width="220" height="220" as="geometry"/>
                </mxCell>
                <mxCell id="Lw-I1L2H1XPd6LwriKKZ-32" value="" style="edgeStyle=orthogonalEdgeStyle;rounded=0;orthogonalLoop=1;jettySize=auto;html=1;exitX=0.994;exitY=0.463;exitDx=0;exitDy=0;exitPerimeter=0;" parent="1" source="Lw-I1L2H1XPd6LwriKKZ-4" target="Lw-I1L2H1XPd6LwriKKZ-9" edge="1">
                    <mxGeometry relative="1" as="geometry">
                        <mxPoint x="570" y="-580" as="sourcePoint"/>
                        <Array as="points">
                            <mxPoint x="559" y="-580"/>
                        </Array>
                    </mxGeometry>
                </mxCell>
                <mxCell id="Lw-I1L2H1XPd6LwriKKZ-6" value="Upload your data first" style="rounded=1;whiteSpace=wrap;html=1;" parent="1" vertex="1">
                    <mxGeometry x="395" y="-605.5" width="110" height="40" as="geometry"/>
                </mxCell>
                <mxCell id="Lw-I1L2H1XPd6LwriKKZ-9" value="" style="whiteSpace=wrap;html=1;aspect=fixed;" parent="1" vertex="1">
                    <mxGeometry x="650" y="-680" width="220" height="220" as="geometry"/>
                </mxCell>
                <mxCell id="Lw-I1L2H1XPd6LwriKKZ-10" value="&lt;b&gt;2024 Jul 22&amp;nbsp; &lt;/b&gt;expected&amp;nbsp;&lt;span style=&quot;background-color: initial;&quot;&gt;&lt;b&gt;9000&lt;/b&gt;&amp;nbsp;&lt;/span&gt;&lt;span style=&quot;background-color: initial;&quot;&gt;steps&lt;/span&gt;" style="text;html=1;align=center;verticalAlign=middle;whiteSpace=wrap;rounded=0;" parent="1" vertex="1">
                    <mxGeometry x="710" y="-593" width="110" height="15" as="geometry"/>
                </mxCell>
                <mxCell id="Lw-I1L2H1XPd6LwriKKZ-15" value="" style="whiteSpace=wrap;html=1;aspect=fixed;" parent="1" vertex="1">
                    <mxGeometry x="1271.87" y="-852.75" width="220" height="220" as="geometry"/>
                </mxCell>
                <mxCell id="Lw-I1L2H1XPd6LwriKKZ-24" value="The first day:" style="text;html=1;align=center;verticalAlign=middle;whiteSpace=wrap;rounded=0;" parent="1" vertex="1">
                    <mxGeometry x="670" y="-720" width="100" height="30" as="geometry"/>
                </mxCell>
                <mxCell id="Lw-I1L2H1XPd6LwriKKZ-25" value="The second day" style="text;html=1;align=center;verticalAlign=middle;whiteSpace=wrap;rounded=0;" parent="1" vertex="1">
                    <mxGeometry x="1321.87" y="-892.75" width="120" height="30" as="geometry"/>
                </mxCell>
                <mxCell id="Lw-I1L2H1XPd6LwriKKZ-27" value="0" style="rounded=0;whiteSpace=wrap;html=1;" parent="1" vertex="1">
                    <mxGeometry x="1324.87" y="-756.25" width="127" height="22" as="geometry"/>
                </mxCell>
                <mxCell id="Lw-I1L2H1XPd6LwriKKZ-28" value="&lt;font style=&quot;font-size: 10px;&quot;&gt;Upload your steps yesterday&lt;/font&gt;" style="text;html=1;align=center;verticalAlign=middle;whiteSpace=wrap;rounded=0;" parent="1" vertex="1">
                    <mxGeometry x="1305.87" y="-790.75" width="165" height="40" as="geometry"/>
                </mxCell>
                <mxCell id="Lw-I1L2H1XPd6LwriKKZ-46" value="" style="edgeStyle=orthogonalEdgeStyle;rounded=0;orthogonalLoop=1;jettySize=auto;html=1;" parent="1" source="Lw-I1L2H1XPd6LwriKKZ-31" edge="1">
                    <mxGeometry relative="1" as="geometry">
                        <mxPoint x="1381.87" y="-557.25" as="targetPoint"/>
                        <Array as="points">
                            <mxPoint x="1387.87" y="-634.25"/>
                            <mxPoint x="1382.87" y="-634.25"/>
                        </Array>
                    </mxGeometry>
                </mxCell>
                <mxCell id="Lw-I1L2H1XPd6LwriKKZ-31" value="&lt;font style=&quot;font-size: 8px;&quot;&gt;Upload&lt;/font&gt;" style="rounded=0;whiteSpace=wrap;html=1;" parent="1" vertex="1">
                    <mxGeometry x="1367.37" y="-720.75" width="40" height="10" as="geometry"/>
                </mxCell>
                <mxCell id="Lw-I1L2H1XPd6LwriKKZ-33" value="1&lt;span style=&quot;background-color: initial;&quot;&gt;. The data is until 2024 Jul 21&lt;/span&gt;&lt;div&gt;&lt;span style=&quot;background-color: initial;&quot;&gt;2. Read the database to get predicated value and show it to the user&lt;/span&gt;&lt;/div&gt;" style="text;html=1;align=left;verticalAlign=middle;whiteSpace=wrap;rounded=0;" parent="1" vertex="1">
                    <mxGeometry x="650" y="-450.25" width="220" height="60" as="geometry"/>
                </mxCell>
                <mxCell id="Lw-I1L2H1XPd6LwriKKZ-42" value="" style="whiteSpace=wrap;html=1;aspect=fixed;" parent="1" vertex="1">
                    <mxGeometry x="1271.87" y="-537.25" width="220" height="220" as="geometry"/>
                </mxCell>
                <mxCell id="Lw-I1L2H1XPd6LwriKKZ-44" value="&lt;b&gt;2024 Jul 23&amp;nbsp;&lt;/b&gt;&lt;div&gt;expected&amp;nbsp;&lt;span style=&quot;background-color: initial;&quot;&gt;&lt;b&gt;8450&lt;/b&gt;&amp;nbsp;&lt;/span&gt;&lt;span style=&quot;background-color: initial;&quot;&gt;steps&lt;/span&gt;&lt;/div&gt;" style="text;html=1;align=center;verticalAlign=middle;whiteSpace=wrap;rounded=0;" parent="1" vertex="1">
                    <mxGeometry x="1285.62" y="-450.25" width="192.5" height="15" as="geometry"/>
                </mxCell>
                <mxCell id="Lw-I1L2H1XPd6LwriKKZ-47" value="Click" style="text;html=1;align=center;verticalAlign=middle;resizable=0;points=[];autosize=1;strokeColor=none;fillColor=none;" parent="1" vertex="1">
                    <mxGeometry x="1384.87" y="-629.25" width="50" height="30" as="geometry"/>
                </mxCell>
                <mxCell id="Lw-I1L2H1XPd6LwriKKZ-48" value="1. Ask the user to upload the data from yesterday (The data is unitil 2024 Jul 22)&lt;div&gt;2. Click and then show the expected steps&lt;/div&gt;&lt;div&gt;3. Save the uploaded status&lt;/div&gt;" style="text;html=1;align=left;verticalAlign=middle;whiteSpace=wrap;rounded=0;" parent="1" vertex="1">
                    <mxGeometry x="1260" y="-297.25" width="243.75" height="50" as="geometry"/>
                </mxCell>
                <mxCell id="Lw-I1L2H1XPd6LwriKKZ-51" value="1. create data&lt;div&gt;2. update data&lt;/div&gt;&lt;div&gt;3. Read data&lt;/div&gt;&lt;div&gt;&lt;br&gt;&lt;/div&gt;" style="text;html=1;align=center;verticalAlign=middle;whiteSpace=wrap;rounded=0;" parent="1" vertex="1">
                    <mxGeometry x="110" y="-220" width="170" height="40" as="geometry"/>
                </mxCell>
                <mxCell id="Lw-I1L2H1XPd6LwriKKZ-52" value="1. is tehe user registration" style="text;html=1;align=center;verticalAlign=middle;whiteSpace=wrap;rounded=0;" parent="1" vertex="1">
                    <mxGeometry x="1541.87" y="-817.25" width="60" height="30" as="geometry"/>
                </mxCell>
                <mxCell id="Lw-I1L2H1XPd6LwriKKZ-56" value="ML model file" style="ellipse;whiteSpace=wrap;html=1;aspect=fixed;" parent="1" vertex="1">
                    <mxGeometry x="570" y="-397" width="80" height="80" as="geometry"/>
                </mxCell>
                <mxCell id="Lw-I1L2H1XPd6LwriKKZ-57" value="" style="endArrow=classic;html=1;rounded=0;" parent="1" edge="1">
                    <mxGeometry width="50" height="50" relative="1" as="geometry">
                        <mxPoint x="600" y="-580" as="sourcePoint"/>
                        <mxPoint x="600" y="-400" as="targetPoint"/>
                    </mxGeometry>
                </mxCell>
                <mxCell id="Lw-I1L2H1XPd6LwriKKZ-58" value="1. open files - how to communicate with the users device&lt;div&gt;2. select file&lt;/div&gt;&lt;div&gt;3. create a new database&lt;/div&gt;&lt;div&gt;- data format:&lt;/div&gt;&lt;div&gt;ID, datetime, value, &lt;b&gt;predicated value&lt;/b&gt;&lt;br&gt;&lt;/div&gt;" style="text;html=1;align=left;verticalAlign=middle;whiteSpace=wrap;rounded=0;" parent="1" vertex="1">
                    <mxGeometry x="340" y="-431.5" width="200" height="134.25" as="geometry"/>
                </mxCell>
                <mxCell id="Lw-I1L2H1XPd6LwriKKZ-67" value="1. Get the raw data&amp;nbsp;&lt;div&gt;2. Preprocess the data&lt;/div&gt;&lt;div&gt;&lt;span style=&quot;white-space: pre;&quot;&gt;&#9;&lt;/span&gt;- In a separate pregrocess file&lt;br&gt;&lt;/div&gt;&lt;div&gt;&lt;span style=&quot;white-space: pre;&quot;&gt;&#9;&lt;/span&gt;- data format: ID, datetime, value&lt;br&gt;&lt;/div&gt;&lt;div&gt;&lt;span style=&quot;white-space: pre;&quot;&gt;&#9;&lt;/span&gt;- Save the clean data to the database and send it to the ml model&lt;br&gt;&lt;/div&gt;&lt;div&gt;3. Train the model&lt;/div&gt;&lt;div&gt;&lt;span style=&quot;white-space: pre;&quot;&gt;&#9;&lt;/span&gt;- Get the predicted step&lt;br&gt;&lt;/div&gt;&lt;div&gt;&lt;span style=&quot;white-space: pre;&quot;&gt;&#9;&lt;/span&gt;- Send the predicated value to the same database&lt;br&gt;&lt;/div&gt;&lt;div&gt;4. Return the prediction&lt;/div&gt;" style="text;html=1;align=left;verticalAlign=middle;whiteSpace=wrap;rounded=0;" parent="1" vertex="1">
                    <mxGeometry x="570" y="-280" width="390" height="94.25" as="geometry"/>
                </mxCell>
                <mxCell id="Lw-I1L2H1XPd6LwriKKZ-68" style="edgeStyle=orthogonalEdgeStyle;rounded=0;orthogonalLoop=1;jettySize=auto;html=1;exitX=0.5;exitY=1;exitDx=0;exitDy=0;" parent="1" source="Lw-I1L2H1XPd6LwriKKZ-1" target="Lw-I1L2H1XPd6LwriKKZ-1" edge="1">
                    <mxGeometry relative="1" as="geometry"/>
                </mxCell>
                <mxCell id="Lw-I1L2H1XPd6LwriKKZ-71" value="&lt;b&gt;&lt;font style=&quot;font-size: 14px;&quot;&gt;User process&lt;/font&gt;&lt;/b&gt;" style="text;html=1;align=center;verticalAlign=middle;whiteSpace=wrap;rounded=0;strokeColor=#FF0000;" parent="1" vertex="1">
                    <mxGeometry x="70" y="-629.25" width="140" height="55" as="geometry"/>
                </mxCell>
                <mxCell id="Lw-I1L2H1XPd6LwriKKZ-72" value="" style="shape=singleArrow;whiteSpace=wrap;html=1;arrowWidth=0.4;arrowSize=0.4;fillColor=none;strokeColor=#FF0000;gradientColor=none;rounded=0;" parent="1" vertex="1">
                    <mxGeometry x="230" y="-631.75" width="80" height="60" as="geometry"/>
                </mxCell>
                <mxCell id="Lw-I1L2H1XPd6LwriKKZ-74" value="Open the app:" style="text;html=1;align=center;verticalAlign=middle;whiteSpace=wrap;rounded=0;" parent="1" vertex="1">
                    <mxGeometry x="340" y="-720.75" width="100" height="30" as="geometry"/>
                </mxCell>
                <mxCell id="2" value="&lt;h1 style=&quot;margin-top: 0px;&quot;&gt;Week 30 (July 22 - July 28)&lt;/h1&gt;&lt;div&gt;&lt;font size=&quot;3&quot;&gt;&lt;b&gt;1. Research:&amp;nbsp;&lt;/b&gt;&lt;/font&gt;&lt;/div&gt;&lt;div&gt;&lt;font size=&quot;3&quot;&gt;1) How to develop an Android app using C#&lt;/font&gt;&lt;/div&gt;&lt;div&gt;&lt;font size=&quot;3&quot;&gt;2) How to integrate the machine learning model into the application&lt;/font&gt;&lt;/div&gt;&lt;div&gt;&lt;font size=&quot;3&quot;&gt;3) How to read local files from a device&lt;/font&gt;&lt;/div&gt;&lt;div&gt;&lt;br&gt;&lt;/div&gt;&lt;div&gt;&lt;br&gt;&lt;/div&gt;" style="text;html=1;whiteSpace=wrap;overflow=hidden;rounded=0;" vertex="1" parent="1">
                    <mxGeometry x="160" width="720" height="180" as="geometry"/>
                </mxCell>
            </root>
        </mxGraphModel>
    </diagram>
</mxfile>